<?xml version="1.0" standalone="no"?>
<!DOCTYPE svg PUBLIC "-//W3C//DTD SVG 20010904//EN"
 "http://www.w3.org/TR/2001/REC-SVG-20010904/DTD/svg10.dtd">
<svg version="1.0" xmlns="http://www.w3.org/2000/svg"
 width="640.000000pt" height="640.000000pt" viewBox="0 0 640.000000 640.000000"
 preserveAspectRatio="xMidYMid meet">
<metadata>
Created by potrace 1.14, written by Peter Selinger 2001-2017
</metadata>
<g transform="translate(0.000000,640.000000) scale(0.100000,-0.100000)"
fill="#000000" stroke="none">
<path d="M3304 5182 c-60 -21 -138 -54 -173 -72 -67 -36 -140 -110 -173 -174
-38 -75 -86 -132 -135 -159 -48 -26 -188 -82 -497 -199 -87 -33 -183 -76 -214
-95 -85 -55 -157 -80 -322 -113 -289 -58 -382 -58 -900 0 -151 17 -310 29
-355 28 l-80 -3 60 -23 c77 -31 163 -48 299 -62 211 -21 318 -56 421 -135 28
-21 101 -62 163 -92 97 -46 112 -56 112 -77 0 -28 -33 -55 -143 -115 -43 -24
-76 -48 -74 -54 6 -20 76 -27 207 -21 96 5 143 2 205 -10 44 -10 89 -15 102
-12 33 9 36 -8 3 -27 -38 -23 -90 -90 -90 -116 0 -18 6 -21 48 -21 26 0 90 7
142 15 127 20 165 18 230 -9 l55 -22 0 -86 c0 -82 2 -88 29 -117 17 -17 37
-31 47 -31 19 0 329 -317 329 -337 0 -7 -19 -22 -41 -34 -23 -11 -44 -29 -46
-40 -3 -11 -11 -18 -17 -16 -7 3 -13 -3 -13 -13 -2 -28 83 -21 125 10 31 23
34 24 109 11 43 -7 110 -14 150 -16 69 -3 72 -3 60 16 -6 10 -16 19 -22 19 -5
0 -19 8 -30 16 -18 15 -11 16 93 12 62 -3 115 -1 118 4 4 5 12 7 20 4 23 -9
16 15 -12 40 -21 20 -36 24 -92 24 -91 1 -142 25 -219 107 -35 36 -63 67 -63
69 0 2 24 4 53 4 44 0 58 -5 92 -32 69 -58 209 -130 293 -151 30 -7 58 -20 62
-28 6 -9 26 -14 56 -14 38 0 50 5 71 29 l24 29 127 -2 c70 -1 156 -6 191 -11
68 -9 104 3 116 39 3 9 29 26 58 36 67 24 209 121 207 142 0 4 30 11 67 16 98
11 181 53 259 131 35 35 64 71 64 80 0 9 4 16 9 16 5 0 11 9 14 20 3 14 14 20
31 20 45 0 146 39 206 80 100 68 152 66 225 -6 52 -53 70 -84 84 -146 23 -101
-45 -198 -139 -198 -16 0 -30 -4 -30 -10 0 -13 77 -13 85 0 4 6 10 8 14 6 12
-8 72 55 87 91 35 82 6 183 -75 264 -43 42 -67 58 -103 67 -56 14 -87 5 -175
-54 -55 -36 -112 -60 -158 -66 l-27 -3 -2 71 c-1 78 -18 114 -64 138 -75 38
-171 -35 -175 -134 -1 -34 3 -45 23 -60 28 -21 94 -40 139 -40 17 0 31 -4 31
-8 0 -5 -18 -33 -39 -63 -45 -63 -134 -129 -206 -154 -60 -20 -151 -32 -142
-19 9 16 -20 72 -42 79 -28 9 -71 -21 -71 -51 0 -26 34 -54 64 -54 18 0 16 -4
-12 -30 -38 -34 -136 -94 -170 -102 -18 -5 -26 -1 -34 17 -6 14 -22 28 -36 33
-29 9 -28 4 -38 220 -6 134 -5 157 11 192 20 43 55 75 125 110 94 47 111 84
63 140 -25 30 -30 32 -78 27 -59 -6 -184 -46 -264 -85 -80 -38 -186 -148 -238
-244 -80 -150 -126 -279 -146 -410 -6 -38 -16 -68 -22 -68 -23 0 -122 33 -170
57 -58 29 -145 85 -145 94 0 4 25 10 55 14 40 5 62 14 85 35 36 34 38 60 6
114 -26 45 -58 71 -126 106 -38 19 -48 21 -82 11 -53 -16 -72 -49 -65 -110 6
-49 37 -117 63 -136 11 -7 5 -10 -23 -8 -21 1 -54 2 -73 2 -29 1 -46 12 -102
67 -66 64 -67 65 -47 85 10 10 19 27 19 37 0 39 36 55 133 63 113 8 233 50
326 113 84 56 287 249 363 345 62 77 114 172 154 279 28 74 31 157 8 226 -24
71 -14 133 49 296 40 103 54 153 50 173 -4 21 -10 27 -22 22 -9 -4 -29 -9 -45
-12 -26 -6 -27 -4 -17 15 14 27 14 32 -4 32 -8 0 -28 -13 -45 -30 -38 -37 -63
-40 -29 -4 13 14 47 36 76 49 31 14 54 31 58 44 11 37 -15 78 -70 105 -72 37
-126 34 -261 -12z m129 -117 c-3 -9 -8 -13 -11 -11 -3 3 -11 1 -19 -5 -16 -14
-17 3 -1 19 17 17 39 15 31 -3z m-233 -15 c0 -5 -4 -10 -10 -10 -5 0 -10 5
-10 10 0 6 5 10 10 10 6 0 10 -4 10 -10z m215 -49 c-6 -5 -25 10 -25 20 0 5 6
4 14 -3 8 -7 12 -15 11 -17z m105 -511 c0 -5 -4 -10 -10 -10 -5 0 -10 5 -10
10 0 6 5 10 10 10 6 0 10 -4 10 -10z m-70 -20 c0 -5 -5 -10 -11 -10 -5 0 -7 5
-4 10 3 6 8 10 11 10 2 0 4 -4 4 -10z m-80 -20 c0 -5 -4 -10 -10 -10 -5 0 -10
5 -10 10 0 6 5 10 10 10 6 0 10 -4 10 -10z m5 -60 c3 -5 1 -10 -4 -10 -6 0
-11 5 -11 10 0 6 2 10 4 10 3 0 8 -4 11 -10z m70 -39 c3 -5 1 -12 -5 -16 -5
-3 -10 1 -10 9 0 18 6 21 15 7z m85 -37 c0 -8 -5 -12 -10 -9 -6 4 -8 11 -5 16
9 14 15 11 15 -7z m-120 -44 c0 -5 -4 -10 -10 -10 -5 0 -10 5 -10 10 0 6 5 10
10 10 6 0 10 -4 10 -10z m-390 -170 c0 -5 -5 -10 -11 -10 -5 0 -7 5 -4 10 3 6
8 10 11 10 2 0 4 -4 4 -10z m170 -20 c0 -5 -4 -10 -10 -10 -5 0 -10 5 -10 10
0 6 5 10 10 10 6 0 10 -4 10 -10z m105 -44 c8 -7 11 -16 8 -19 -5 -6 -33 17
-33 27 0 10 11 7 25 -8z m-230 -56 c3 -5 1 -10 -4 -10 -6 0 -11 5 -11 10 0 6
2 10 4 10 3 0 8 -4 11 -10z m1386 -199 c19 -16 24 -30 27 -91 3 -40 0 -76 -6
-82 -11 -11 -108 4 -150 24 -33 16 -40 54 -17 97 35 69 97 92 146 52z m-2033
-217 c17 -12 23 -25 22 -52 -1 -73 11 -101 61 -146 53 -48 60 -61 29 -51 -30
9 -25 -14 6 -25 33 -13 37 -13 27 3 -18 29 78 -57 142 -128 39 -43 77 -85 85
-93 13 -14 13 -15 -6 -10 -17 4 -20 2 -17 -13 4 -15 -2 -12 -27 11 -19 17 -45
34 -60 36 -16 4 -81 61 -175 154 l-148 148 2 73 c2 70 13 109 29 109 4 0 18
-7 30 -16z m469 -60 c107 -53 162 -157 96 -182 -46 -17 -142 -34 -153 -27 -6
4 -22 28 -35 55 -32 62 -34 131 -5 160 26 26 36 25 97 -6z m1158 -134 c10 -31
-2 -40 -35 -28 -44 15 -40 48 6 48 14 0 25 -8 29 -20z"/>
<path d="M2981 2986 c9 -9 110 -12 115 -4 3 4 -23 8 -57 8 -34 0 -60 -2 -58
-4z"/>
<path d="M2438 2973 c7 -3 16 -2 19 1 4 3 -2 6 -13 5 -11 0 -14 -3 -6 -6z"/>
<path d="M2658 2953 c6 -2 10 -9 7 -14 -4 -5 1 -6 10 -2 13 5 14 7 3 14 -7 5
-17 8 -23 8 -5 0 -4 -3 3 -6z"/>
<path d="M2876 2932 c-3 -4 4 -9 15 -9 23 -2 25 3 4 10 -8 4 -16 3 -19 -1z"/>
<path d="M2818 2923 c7 -3 16 -2 19 1 4 3 -2 6 -13 5 -11 0 -14 -3 -6 -6z"/>
</g>
</svg>
